<svg width="147" height="147" viewBox="0 0 147 147" fill="none" xmlns="http://www.w3.org/2000/svg">
<path d="M73.401 0C32.9277 0 0 32.917 0 73.3772C0 113.837 32.9277 146.754 73.401 146.754C113.874 146.754 146.802 113.837 146.802 73.3772C146.802 32.917 113.874 0 73.401 0ZM14.6802 73.3772C14.6802 66.7806 15.8253 60.4482 17.8438 54.5266L29.3604 66.0395L44.0406 80.715V95.3904L58.7208 110.066L66.0609 117.404V131.573C37.1482 127.941 14.6802 103.256 14.6802 73.3772ZM119.864 109.134C115.071 105.274 107.804 102.728 102.761 102.728V95.3904C102.761 91.4982 101.215 87.7655 98.4616 85.0133C95.7086 82.2611 91.9746 80.715 88.0812 80.715H58.7208V58.7018C62.6142 58.7018 66.3482 57.1556 69.1012 54.4034C71.8543 51.6513 73.401 47.9185 73.401 44.0263V36.6886H80.7411C84.6345 36.6886 88.3685 35.1425 91.1215 32.3903C93.8746 29.6381 95.4213 25.9053 95.4213 22.0132V18.9974C116.913 27.7219 132.122 48.7959 132.122 73.3772C132.12 86.3261 127.808 98.9062 119.864 109.134Z" fill="white" fill-opacity="0.15"/>
</svg>
