<svg width="42" height="44" viewBox="0 0 42 44" fill="none" xmlns="http://www.w3.org/2000/svg">
<path d="M34.0351 38.3224C30.472 41.4732 25.8497 43.4729 20.818 43.4729C13.3306 43.4729 6.75809 39.1542 3.19507 32.8526L4.52898 26.4147L10.4416 25.2654C11.8139 29.9033 15.9547 33.3063 20.818 33.3063C23.1772 33.3063 25.3681 32.5249 27.1738 31.1385L32.8555 32.046L34.0351 38.3224Z" fill="#59C36A"/>
<path d="M34.0353 38.3223L32.8556 32.0459L27.1739 31.1385C25.3683 32.5248 23.1774 33.3062 20.8181 33.3062V43.4728C25.8499 43.4728 30.4722 41.4731 34.0353 38.3223Z" fill="#00A66C"/>
<path d="M9.98418 21.9634C9.98418 23.1228 10.1527 24.2319 10.4416 25.2654L3.19503 32.8525C1.3894 29.6765 0.273926 25.9459 0.273926 21.9634C0.273926 17.9807 1.3894 14.2502 3.19503 11.0742L9.01098 12.1222L10.4416 18.6613C10.1527 19.6947 9.98418 20.8038 9.98418 21.9634Z" fill="#FFDA2D"/>
<path d="M41.3623 21.9634C41.3623 28.517 38.4653 34.3901 34.0354 38.3223L27.1741 31.1385C28.5703 30.0798 29.7501 28.6682 30.5205 27.0047H20.8183C20.1441 27.0047 19.6145 26.45 19.6145 25.7443V18.1824C19.6145 17.4765 20.1441 16.9221 20.8183 16.9221H39.8215C40.3993 16.9221 40.9048 17.3505 41.0011 17.9555C41.2419 19.2663 41.3623 20.6273 41.3623 21.9634Z" fill="#376AED"/>
<path d="M30.5204 27.0047C29.75 28.6682 28.5702 30.0798 27.174 31.1385L34.0353 38.3223C38.4652 34.3901 41.3621 28.517 41.3621 21.9634C41.3621 20.6273 41.2417 19.2663 41.0009 17.9555C40.9047 17.3505 40.399 16.9221 39.8212 16.9221H20.8181V27.0047H30.5204Z" fill="#376AED"/>
<path d="M34.3722 6.46133C34.3963 6.81422 34.2518 7.14199 34.0351 7.39397L28.8831 12.7629C28.4739 13.2167 27.7998 13.2671 27.3183 12.889C25.4162 11.4019 23.1772 10.6205 20.818 10.6205C15.9547 10.6205 11.8139 14.0233 10.4416 18.6613L3.19507 11.0742C6.75809 4.77259 13.3306 0.453888 20.818 0.453888C25.6089 0.453888 30.2794 2.30236 33.9388 5.52869C34.2037 5.75564 34.3481 6.10844 34.3722 6.46133Z" fill="#FF7F23"/>
<path d="M27.3184 12.889C27.7999 13.2671 28.4739 13.2167 28.8832 12.7629L34.0352 7.39397C34.252 7.14199 34.3964 6.81431 34.3723 6.46133C34.3481 6.10836 34.2038 5.75564 33.9389 5.52869C30.2796 2.30236 25.609 0.453888 20.8181 0.453888V10.6205C23.1774 10.6205 25.4164 11.4019 27.3184 12.889Z" fill="#F03800"/>
</svg>
