<svg width="130" height="88" viewBox="0 0 130 88" fill="none" xmlns="http://www.w3.org/2000/svg">
<path d="M11.2534 3.35156C9.09718 4.25781 7.43312 5.60156 6.26125 7.38281C5.105 9.16406 4.52687 11.3281 4.52687 13.875C4.52687 14.9062 4.64406 15.7031 4.87843 16.2656C4.94093 16.4688 5.01906 16.6484 5.11281 16.8047C5.17531 16.9141 5.20656 17.0234 5.20656 17.1328C3.48781 17.1328 2.21437 16.7891 1.38625 16.1016C0.511246 15.3672 0.0737457 14.1562 0.0737457 12.4688C0.0737457 11.4375 0.292496 10.4062 0.729996 9.375C1.18312 8.34375 1.82375 7.35156 2.65187 6.39844C3.44875 5.47656 4.38625 4.625 5.46437 3.84375C6.5425 3.0625 7.71437 2.38281 8.98 1.80469C11.6675 0.601562 14.3081 0 16.9019 0C17.6206 0 18.2612 0.03125 18.8237 0.09375L15.7534 14.3906H22.8081L25.8784 0.09375H32.7925L25.1753 36H18.2612L22.105 17.9531H15.0503L11.2066 36H4.2925L11.2534 3.35156ZM36.9353 36.2812C35.1072 36.2812 33.6306 35.7109 32.5056 34.5703C31.1931 33.2266 30.5369 31.2266 30.5369 28.5703C30.5369 27.4453 30.6541 26.2578 30.8884 25.0078C31.1072 23.7578 31.4353 22.5234 31.8728 21.3047C32.8728 18.5547 34.24 16.3359 35.9744 14.6484C37.9744 12.7266 40.2791 11.7656 42.8884 11.7656C44.1853 11.7656 45.1541 11.9922 45.7947 12.4453C46.4509 12.8828 46.7791 13.4688 46.7791 14.2031V14.5547L47.2947 12H54.2087L50.7634 28.3125C50.6228 28.7812 50.5525 29.2969 50.5525 29.8594C50.5525 31.2344 51.2087 31.9219 52.5212 31.9219C53.3962 31.9219 54.1931 31.4766 54.9119 30.5859C55.5212 29.8359 56.0212 28.7734 56.4119 27.3984H58.4275C57.5681 29.8359 56.5291 31.7656 55.3103 33.1875C54.2791 34.3594 53.115 35.2031 51.8181 35.7188C50.865 36.0938 49.8572 36.2812 48.7947 36.2812C47.4353 36.2812 46.3494 35.9141 45.5369 35.1797C44.74 34.4297 44.2556 33.3281 44.0837 31.875C43.1775 33.1562 42.2244 34.1562 41.2244 34.875C39.9431 35.8125 38.5134 36.2812 36.9353 36.2812ZM40.0525 31.6406C40.4119 31.6406 40.7869 31.5469 41.1775 31.3594C41.5837 31.1719 41.9744 30.9062 42.3494 30.5625C43.1931 29.75 43.7556 28.6953 44.0369 27.3984L46.3337 16.5703C46.3337 16.4141 46.2947 16.2344 46.2166 16.0312C46.1541 15.8125 46.0603 15.6094 45.9353 15.4219C45.5603 14.9688 45.0369 14.7422 44.365 14.7422C43.7244 14.7422 43.0994 14.9531 42.49 15.375C41.8962 15.7969 41.3337 16.3828 40.8025 17.1328C39.865 18.4922 39.0916 20.2656 38.4822 22.4531C38.2009 23.4219 37.99 24.3828 37.8494 25.3359C37.7087 26.2734 37.6384 27.125 37.6384 27.8906C37.6384 29.4844 37.9353 30.5625 38.5291 31.125C38.7322 31.3438 38.9587 31.4844 39.2087 31.5469C39.4587 31.6094 39.74 31.6406 40.0525 31.6406ZM62.5703 36.2812C60.3828 36.2812 58.7188 35.75 57.5781 34.6875C56.4375 33.6094 55.8672 32.0938 55.8672 30.1406C55.8672 29.0938 55.9766 28.1797 56.1953 27.3984L61.3281 3.35156L68.4297 2.39062L66.1328 13.1953C67.0547 12.6328 67.8359 12.2578 68.4766 12.0703C68.9453 11.9297 69.4766 11.8594 70.0703 11.8594C71.8672 11.8594 73.2344 12.4609 74.1719 13.6641C75.2188 15.0234 75.7422 17.1562 75.7422 20.0625C75.7422 21.0625 75.6484 22.1484 75.4609 23.3203C75.2734 24.4766 74.9844 25.625 74.5938 26.7656C73.6562 29.5 72.2969 31.6875 70.5156 33.3281C68.3594 35.2969 65.7109 36.2812 62.5703 36.2812ZM65.2656 31.6406C66.2344 31.6406 67.1875 30.9922 68.125 29.6953C68.9375 28.5391 69.6094 27.0234 70.1406 25.1484C70.6406 23.3047 70.8906 21.5469 70.8906 19.875C70.8906 18.5781 70.6875 17.5156 70.2812 16.6875C70.0625 16.2344 69.7891 15.8828 69.4609 15.6328C69.1328 15.3828 68.7578 15.2578 68.3359 15.2578C67.7891 15.2578 67.2969 15.3125 66.8594 15.4219C66.2031 15.5938 65.75 15.8281 65.5 16.125L62.875 28.3125C62.7812 28.7031 62.7344 29.0703 62.7344 29.4141C62.7344 30.8984 63.5781 31.6406 65.2656 31.6406ZM84.1506 36.2812C81.7912 36.2812 79.9709 35.6875 78.6897 34.5C77.3303 33.2344 76.6506 31.2891 76.6506 28.6641C76.6506 27.6797 76.7522 26.5859 76.9553 25.3828C77.1428 24.1797 77.4319 22.9766 77.8225 21.7734C78.26 20.4297 78.8147 19.1562 79.4866 17.9531C80.1741 16.75 80.9709 15.6875 81.8772 14.7656C83.9709 12.6406 86.5491 11.5781 89.6116 11.5781C91.5647 11.5781 92.9866 12.0469 93.8772 12.9844C94.5647 13.7188 94.9084 14.7812 94.9084 16.1719C94.9084 17.5312 94.6116 18.8125 94.0178 20.0156C93.4241 21.2031 92.6037 22.2578 91.5569 23.1797C90.51 24.0859 89.3225 24.8125 87.9944 25.3594C86.6662 25.8906 85.2912 26.2031 83.8694 26.2969C83.7912 27.1094 83.7522 27.75 83.7522 28.2188C83.7522 29.7812 84.0491 30.8594 84.6428 31.4531C85.1584 31.9844 86.0178 32.25 87.2209 32.25C88.9553 32.25 90.5412 31.7812 91.9787 30.8438C92.5881 30.4531 93.1741 29.9922 93.7366 29.4609C94.2991 28.9141 94.9553 28.2266 95.7053 27.3984H97.3459C95.8303 29.9609 94.0881 32 92.1194 33.5156C89.6975 35.3594 87.0412 36.2812 84.1506 36.2812ZM84.2444 24C85.135 23.9375 86.0022 23.6797 86.8459 23.2266C87.6897 22.7734 88.4397 22.1797 89.0959 21.4453C89.7522 20.6953 90.2678 19.8594 90.6428 18.9375C91.0178 18 91.2053 17.0469 91.2053 16.0781C91.2053 15.4375 91.1116 14.9531 90.9241 14.625C90.7522 14.2812 90.4475 14.1094 90.01 14.1094C89.4319 14.1094 88.8459 14.3906 88.2522 14.9531C87.6741 15.5156 87.1116 16.2891 86.5647 17.2734C86.0647 18.1953 85.6116 19.2422 85.2053 20.4141C84.7991 21.5859 84.4787 22.7812 84.2444 24ZM98.7231 12H105.637L105.028 14.9766C106.122 14.0078 107.012 13.3203 107.7 12.9141C108.762 12.3047 109.801 12 110.817 12C111.848 12 112.676 12.3672 113.301 13.1016C113.582 13.4297 113.793 13.8125 113.934 14.25C114.075 14.6719 114.145 15.125 114.145 15.6094C114.145 16.0469 114.075 16.4688 113.934 16.875C113.793 17.2812 113.582 17.6484 113.301 17.9766C112.989 18.3203 112.606 18.5938 112.153 18.7969C111.715 19 111.223 19.1016 110.676 19.1016C110.254 19.1016 109.918 19.0312 109.668 18.8906C109.418 18.75 109.223 18.5469 109.082 18.2812C108.957 18.0156 108.872 17.7578 108.825 17.5078C108.684 16.8359 108.543 16.3906 108.403 16.1719C108.293 16.0156 108.122 15.9375 107.887 15.9375C107.215 15.9375 106.645 16.0781 106.176 16.3594C105.707 16.6406 105.114 17.1094 104.395 17.7656L100.551 36H93.6372L98.7231 12Z" fill="#B62424"/>
<path d="M37.375 44.2188H36.8125C33.9688 44.2188 31.8281 44.8672 30.3906 46.1641C28.6562 47.7266 27.7891 50.3125 27.7891 53.9219C27.7891 54.9219 27.8984 55.7188 28.1172 56.3125C28.1797 56.5156 28.2578 56.6953 28.3516 56.8516C28.4141 56.9609 28.4453 57.0703 28.4453 57.1797C26.7109 57.1797 25.4453 56.8359 24.6484 56.1484C23.7578 55.3984 23.3125 54.1953 23.3125 52.5391C23.3125 50.8828 23.6172 49.3125 24.2266 47.8281C24.8516 46.3281 25.7969 45.0156 27.0625 43.8906C28.4219 42.6719 30.1484 41.7266 32.2422 41.0547C34.3516 40.3828 36.8359 40.0469 39.6953 40.0469C41.3359 40.0469 42.9062 40.1406 44.4062 40.3281C44.875 40.375 45.4844 40.4609 46.2344 40.5859C47.4844 40.8203 48.6875 40.9766 49.8438 41.0547C50.4062 41.1172 51.1172 41.1484 51.9766 41.1484C53.0391 41.1484 54.0547 41.0547 55.0234 40.8672C55.9922 40.6797 56.8359 40.4375 57.5547 40.1406C57.4766 42.2344 56.9375 43.7734 55.9375 44.7578C54.9531 45.7422 53.4922 46.2344 51.5547 46.2344C50.5078 46.2344 49.4531 46.1484 48.3906 45.9766C47.3281 45.8047 45.8984 45.5391 44.1016 45.1797L37.4688 76H30.5781L37.375 44.2188ZM51.6662 76.2812C49.8381 76.2812 48.3616 75.7109 47.2366 74.5703C45.9241 73.2266 45.2678 71.2266 45.2678 68.5703C45.2678 67.4453 45.385 66.2578 45.6194 65.0078C45.8381 63.7578 46.1662 62.5234 46.6037 61.3047C47.6037 58.5547 48.9709 56.3359 50.7053 54.6484C52.7053 52.7266 55.01 51.7656 57.6194 51.7656C58.9162 51.7656 59.885 51.9922 60.5256 52.4453C61.1819 52.8828 61.51 53.4688 61.51 54.2031V54.5547L62.0256 52H68.9397L65.4944 68.3125C65.3537 68.7812 65.2834 69.2969 65.2834 69.8594C65.2834 71.2344 65.9397 71.9219 67.2522 71.9219C68.1272 71.9219 68.9241 71.4766 69.6428 70.5859C70.2522 69.8359 70.7522 68.7734 71.1428 67.3984H73.1584C72.2991 69.8359 71.26 71.7656 70.0412 73.1875C69.01 74.3594 67.8459 75.2031 66.5491 75.7188C65.5959 76.0938 64.5881 76.2812 63.5256 76.2812C62.1662 76.2812 61.0803 75.9141 60.2678 75.1797C59.4709 74.4297 58.9866 73.3281 58.8147 71.875C57.9084 73.1562 56.9553 74.1562 55.9553 74.875C54.6741 75.8125 53.2444 76.2812 51.6662 76.2812ZM54.7834 71.6406C55.1428 71.6406 55.5178 71.5469 55.9084 71.3594C56.3147 71.1719 56.7053 70.9062 57.0803 70.5625C57.9241 69.75 58.4866 68.6953 58.7678 67.3984L61.0647 56.5703C61.0647 56.4141 61.0256 56.2344 60.9475 56.0312C60.885 55.8125 60.7912 55.6094 60.6662 55.4219C60.2912 54.9688 59.7678 54.7422 59.0959 54.7422C58.4553 54.7422 57.8303 54.9531 57.2209 55.375C56.6272 55.7969 56.0647 56.3828 55.5334 57.1328C54.5959 58.4922 53.8225 60.2656 53.2131 62.4531C52.9319 63.4219 52.7209 64.3828 52.5803 65.3359C52.4397 66.2734 52.3694 67.125 52.3694 67.8906C52.3694 69.4844 52.6662 70.5625 53.26 71.125C53.4631 71.3438 53.6897 71.4844 53.9397 71.5469C54.1897 71.6094 54.4709 71.6406 54.7834 71.6406ZM88.9731 76.2812C86.9887 76.2812 85.4809 75.8125 84.4497 74.875C83.4341 73.9375 82.9262 72.5859 82.9262 70.8203C82.9262 70.0547 83.02 69.2188 83.2075 68.3125L83.6059 66.4375C83.7309 65.9531 83.7934 65.3672 83.7934 64.6797C83.7934 63.9297 83.6606 63.3594 83.395 62.9688C83.1294 62.5625 82.6841 62.3594 82.0591 62.3594C81.5434 62.3594 81.0044 62.5078 80.4419 62.8047C79.8794 63.1016 79.2387 63.5469 78.52 64.1406L76.0122 76H69.0981L76.0591 43.3516L83.1606 42.3906L79.5747 59.2891L88.8325 52H93.5903L83.9809 58.6797C84.5278 58.5391 85.0591 58.4688 85.5747 58.4688C86.4497 58.4688 87.2153 58.6172 87.8716 58.9141C88.5434 59.1953 89.1059 59.6016 89.5591 60.1328C89.9809 60.6328 90.3012 61.2266 90.52 61.9141C90.7387 62.5859 90.8481 63.3125 90.8481 64.0938C90.8481 64.8281 90.7856 65.4375 90.6606 65.9219L90.1216 68.3125C89.9653 68.8281 89.8872 69.3438 89.8872 69.8594C89.8872 70.4062 90.0278 70.8438 90.3091 71.1719C90.5903 71.4844 91.0747 71.6406 91.7622 71.6406C92.7153 71.6406 93.52 71.25 94.1762 70.4688C94.6762 69.875 95.2153 68.8516 95.7934 67.3984H97.8091C96.6372 70.9453 95.0981 73.4297 93.1919 74.8516C91.9419 75.8047 90.5356 76.2812 88.9731 76.2812ZM103.592 49.3984C103.077 49.3984 102.585 49.3047 102.116 49.1172C101.647 48.9141 101.241 48.6406 100.897 48.2969C100.553 47.9688 100.28 47.5703 100.077 47.1016C99.8894 46.6328 99.7956 46.1406 99.7956 45.625C99.7956 45.1094 99.8894 44.6172 100.077 44.1484C100.28 43.6797 100.553 43.2656 100.897 42.9062C101.241 42.5469 101.647 42.2734 102.116 42.0859C102.585 41.8828 103.077 41.7812 103.592 41.7812C104.108 41.7812 104.6 41.8828 105.069 42.0859C105.538 42.2734 105.952 42.5469 106.311 42.9062C106.671 43.2656 106.944 43.6797 107.132 44.1484C107.335 44.6172 107.436 45.1094 107.436 45.625C107.436 46.1406 107.335 46.6328 107.132 47.1016C106.944 47.5703 106.671 47.9688 106.311 48.2969C105.952 48.6406 105.538 48.9141 105.069 49.1172C104.6 49.3047 104.108 49.3984 103.592 49.3984ZM100.335 76.2812C98.8034 76.2812 97.5925 75.8281 96.7019 74.9219C95.7019 73.9219 95.2019 72.4609 95.2019 70.5391C95.2019 69.6328 95.3269 68.5859 95.5769 67.3984L98.8347 52H105.749L102.303 68.3125C102.178 68.7188 102.116 69.2344 102.116 69.8594C102.116 70.5156 102.264 70.9766 102.561 71.2422C102.874 71.5078 103.374 71.6406 104.061 71.6406C104.53 71.6406 104.983 71.5391 105.421 71.3359C105.874 71.1172 106.288 70.8203 106.663 70.4453C107.428 69.6797 108.007 68.6641 108.397 67.3984H110.413C109.553 69.8203 108.475 71.75 107.178 73.1875C106.085 74.3594 104.85 75.2031 103.475 75.7188C102.475 76.0938 101.428 76.2812 100.335 76.2812ZM111.837 50.2188H118.751L117.977 53.8281C119.602 52.4531 121.47 51.7656 123.579 51.7656C125.376 51.7656 126.767 52.3125 127.751 53.4062C128.876 54.6875 129.438 56.6641 129.438 59.3359C129.438 61.9141 129.11 64.3359 128.454 66.6016C127.626 69.4922 126.423 71.7344 124.845 73.3281C122.907 75.2969 120.501 76.2812 117.626 76.2812C116.517 76.2812 115.602 76.1094 114.884 75.7656C114.337 75.5156 113.892 75.1172 113.548 74.5703L111.063 86.2656L103.821 88L111.837 50.2188ZM116.149 72.1094C117.696 72.1094 119.024 71.3203 120.134 69.7422C121.009 68.5078 121.712 66.7734 122.243 64.5391C122.665 62.7422 122.876 60.9609 122.876 59.1953C122.876 57.6172 122.587 56.4922 122.009 55.8203C121.634 55.4141 121.118 55.2109 120.462 55.2109C119.884 55.2109 119.298 55.4141 118.704 55.8203C118.11 56.2266 117.595 56.8125 117.157 57.5781L114.321 71.0078C114.431 71.3203 114.634 71.5859 114.931 71.8047C115.243 72.0078 115.649 72.1094 116.149 72.1094Z" fill="#645B5B"/>
</svg>
