<svg width="1024" height="1024" viewBox="0 0 1024 1024" fill="none" xmlns="http://www.w3.org/2000/svg">
<rect width="1024" height="1024" rx="60" fill="#272525"/>
<path d="M268.605 338.875C257.105 343.708 248.23 350.875 241.98 360.375C235.813 369.875 232.73 381.417 232.73 395C232.73 400.5 233.355 404.75 234.605 407.75C234.938 408.833 235.355 409.792 235.855 410.625C236.188 411.208 236.355 411.792 236.355 412.375C227.188 412.375 220.397 410.542 215.98 406.875C211.313 402.958 208.98 396.5 208.98 387.5C208.98 382 210.147 376.5 212.48 371C214.897 365.5 218.313 360.208 222.73 355.125C226.98 350.208 231.98 345.667 237.73 341.5C243.48 337.333 249.73 333.708 256.48 330.625C270.813 324.208 284.897 321 298.73 321C302.563 321 305.98 321.167 308.98 321.5L292.605 397.75H330.23L346.605 321.5H383.48L342.855 513H305.98L326.48 416.75H288.855L268.355 513H231.48L268.605 338.875ZM406.615 514.5C396.865 514.5 388.99 511.458 382.99 505.375C375.99 498.208 372.49 487.542 372.49 473.375C372.49 467.375 373.115 461.042 374.365 454.375C375.532 447.708 377.282 441.125 379.615 434.625C384.948 419.958 392.24 408.125 401.49 399.125C412.157 388.875 424.448 383.75 438.365 383.75C445.282 383.75 450.448 384.958 453.865 387.375C457.365 389.708 459.115 392.833 459.115 396.75V398.625L461.865 385H498.74L480.365 472C479.615 474.5 479.24 477.25 479.24 480.25C479.24 487.583 482.74 491.25 489.74 491.25C494.407 491.25 498.657 488.875 502.49 484.125C505.74 480.125 508.407 474.458 510.49 467.125H521.24C516.657 480.125 511.115 490.417 504.615 498C499.115 504.25 492.907 508.75 485.99 511.5C480.907 513.5 475.532 514.5 469.865 514.5C462.615 514.5 456.823 512.542 452.49 508.625C448.24 504.625 445.657 498.75 444.74 491C439.907 497.833 434.823 503.167 429.49 507C422.657 512 415.032 514.5 406.615 514.5ZM423.24 489.75C425.157 489.75 427.157 489.25 429.24 488.25C431.407 487.25 433.49 485.833 435.49 484C439.99 479.667 442.99 474.042 444.49 467.125L456.74 409.375C456.74 408.542 456.532 407.583 456.115 406.5C455.782 405.333 455.282 404.25 454.615 403.25C452.615 400.833 449.823 399.625 446.24 399.625C442.823 399.625 439.49 400.75 436.24 403C433.073 405.25 430.073 408.375 427.24 412.375C422.24 419.625 418.115 429.083 414.865 440.75C413.365 445.917 412.24 451.042 411.49 456.125C410.74 461.125 410.365 465.667 410.365 469.75C410.365 478.25 411.948 484 415.115 487C416.198 488.167 417.407 488.917 418.74 489.25C420.073 489.583 421.573 489.75 423.24 489.75ZM544.375 514.5C532.708 514.5 523.833 511.667 517.75 506C511.667 500.25 508.625 492.167 508.625 481.75C508.625 476.167 509.208 471.292 510.375 467.125L537.75 338.875L575.625 333.75L563.375 391.375C568.292 388.375 572.458 386.375 575.875 385.375C578.375 384.625 581.208 384.25 584.375 384.25C593.958 384.25 601.25 387.458 606.25 393.875C611.833 401.125 614.625 412.5 614.625 428C614.625 433.333 614.125 439.125 613.125 445.375C612.125 451.542 610.583 457.667 608.5 463.75C603.5 478.333 596.25 490 586.75 498.75C575.25 509.25 561.125 514.5 544.375 514.5ZM558.75 489.75C563.917 489.75 569 486.292 574 479.375C578.333 473.208 581.917 465.125 584.75 455.125C587.417 445.292 588.75 435.917 588.75 427C588.75 420.083 587.667 414.417 585.5 410C584.333 407.583 582.875 405.708 581.125 404.375C579.375 403.042 577.375 402.375 575.125 402.375C572.208 402.375 569.583 402.667 567.25 403.25C563.75 404.167 561.333 405.417 560 407L546 472C545.5 474.083 545.25 476.042 545.25 477.875C545.25 485.792 549.75 489.75 558.75 489.75ZM660.51 514.5C647.927 514.5 638.218 511.333 631.385 505C624.135 498.25 620.51 487.875 620.51 473.875C620.51 468.625 621.052 462.792 622.135 456.375C623.135 449.958 624.677 443.542 626.76 437.125C629.093 429.958 632.052 423.167 635.635 416.75C639.302 410.333 643.552 404.667 648.385 399.75C659.552 388.417 673.302 382.75 689.635 382.75C700.052 382.75 707.635 385.25 712.385 390.25C716.052 394.167 717.885 399.833 717.885 407.25C717.885 414.5 716.302 421.333 713.135 427.75C709.968 434.083 705.593 439.708 700.01 444.625C694.427 449.458 688.093 453.333 681.01 456.25C673.927 459.083 666.593 460.75 659.01 461.25C658.593 465.583 658.385 469 658.385 471.5C658.385 479.833 659.968 485.583 663.135 488.75C665.885 491.583 670.468 493 676.885 493C686.135 493 694.593 490.5 702.26 485.5C705.51 483.417 708.635 480.958 711.635 478.125C714.635 475.208 718.135 471.542 722.135 467.125H730.885C722.802 480.792 713.51 491.667 703.01 499.75C690.093 509.583 675.927 514.5 660.51 514.5ZM661.01 449C665.76 448.667 670.385 447.292 674.885 444.875C679.385 442.458 683.385 439.292 686.885 435.375C690.385 431.375 693.135 426.917 695.135 422C697.135 417 698.135 411.917 698.135 406.75C698.135 403.333 697.635 400.75 696.635 399C695.718 397.167 694.093 396.25 691.76 396.25C688.677 396.25 685.552 397.75 682.385 400.75C679.302 403.75 676.302 407.875 673.385 413.125C670.718 418.042 668.302 423.625 666.135 429.875C663.968 436.125 662.26 442.5 661.01 449ZM739.27 385H776.145L772.895 400.875C778.728 395.708 783.478 392.042 787.145 389.875C792.812 386.625 798.353 385 803.77 385C809.27 385 813.687 386.958 817.02 390.875C818.52 392.625 819.645 394.667 820.395 397C821.145 399.25 821.52 401.667 821.52 404.25C821.52 406.583 821.145 408.833 820.395 411C819.645 413.167 818.52 415.125 817.02 416.875C815.353 418.708 813.312 420.167 810.895 421.25C808.562 422.333 805.937 422.875 803.02 422.875C800.77 422.875 798.978 422.5 797.645 421.75C796.312 421 795.27 419.917 794.52 418.5C793.853 417.083 793.395 415.708 793.145 414.375C792.395 410.792 791.645 408.417 790.895 407.25C790.312 406.417 789.395 406 788.145 406C784.562 406 781.52 406.75 779.02 408.25C776.52 409.75 773.353 412.25 769.52 415.75L749.02 513H712.145L739.27 385Z" fill="#B62424"/>
<path d="M382.37 503.5H379.37C364.203 503.5 352.787 506.958 345.12 513.875C335.87 522.208 331.245 536 331.245 555.25C331.245 560.583 331.828 564.833 332.995 568C333.328 569.083 333.745 570.042 334.245 570.875C334.578 571.458 334.745 572.042 334.745 572.625C325.495 572.625 318.745 570.792 314.495 567.125C309.745 563.125 307.37 556.708 307.37 547.875C307.37 539.042 308.995 530.667 312.245 522.75C315.578 514.75 320.62 507.75 327.37 501.75C334.62 495.25 343.828 490.208 354.995 486.625C366.245 483.042 379.495 481.25 394.745 481.25C403.495 481.25 411.87 481.75 419.87 482.75C422.37 483 425.62 483.458 429.62 484.125C436.287 485.375 442.703 486.208 448.87 486.625C451.87 486.958 455.662 487.125 460.245 487.125C465.912 487.125 471.328 486.625 476.495 485.625C481.662 484.625 486.162 483.333 489.995 481.75C489.578 492.917 486.703 501.125 481.37 506.375C476.12 511.625 468.328 514.25 457.995 514.25C452.412 514.25 446.787 513.792 441.12 512.875C435.453 511.958 427.828 510.542 418.245 508.625L382.87 673H346.12L382.37 503.5ZM459.63 674.5C449.88 674.5 442.005 671.458 436.005 665.375C429.005 658.208 425.505 647.542 425.505 633.375C425.505 627.375 426.13 621.042 427.38 614.375C428.547 607.708 430.297 601.125 432.63 594.625C437.963 579.958 445.255 568.125 454.505 559.125C465.172 548.875 477.463 543.75 491.38 543.75C498.297 543.75 503.463 544.958 506.88 547.375C510.38 549.708 512.13 552.833 512.13 556.75V558.625L514.88 545H551.755L533.38 632C532.63 634.5 532.255 637.25 532.255 640.25C532.255 647.583 535.755 651.25 542.755 651.25C547.422 651.25 551.672 648.875 555.505 644.125C558.755 640.125 561.422 634.458 563.505 627.125H574.255C569.672 640.125 564.13 650.417 557.63 658C552.13 664.25 545.922 668.75 539.005 671.5C533.922 673.5 528.547 674.5 522.88 674.5C515.63 674.5 509.838 672.542 505.505 668.625C501.255 664.625 498.672 658.75 497.755 651C492.922 657.833 487.838 663.167 482.505 667C475.672 672 468.047 674.5 459.63 674.5ZM476.255 649.75C478.172 649.75 480.172 649.25 482.255 648.25C484.422 647.25 486.505 645.833 488.505 644C493.005 639.667 496.005 634.042 497.505 627.125L509.755 569.375C509.755 568.542 509.547 567.583 509.13 566.5C508.797 565.333 508.297 564.25 507.63 563.25C505.63 560.833 502.838 559.625 499.255 559.625C495.838 559.625 492.505 560.75 489.255 563C486.088 565.25 483.088 568.375 480.255 572.375C475.255 579.625 471.13 589.083 467.88 600.75C466.38 605.917 465.255 611.042 464.505 616.125C463.755 621.125 463.38 625.667 463.38 629.75C463.38 638.25 464.963 644 468.13 647C469.213 648.167 470.422 648.917 471.755 649.25C473.088 649.583 474.588 649.75 476.255 649.75ZM659.64 674.5C649.057 674.5 641.015 672 635.515 667C630.098 662 627.39 654.792 627.39 645.375C627.39 641.292 627.89 636.833 628.89 632L631.015 622C631.682 619.417 632.015 616.292 632.015 612.625C632.015 608.625 631.307 605.583 629.89 603.5C628.473 601.333 626.098 600.25 622.765 600.25C620.015 600.25 617.14 601.042 614.14 602.625C611.14 604.208 607.723 606.583 603.89 609.75L590.515 673H553.64L590.765 498.875L628.64 493.75L609.515 583.875L658.89 545H684.265L633.015 580.625C635.932 579.875 638.765 579.5 641.515 579.5C646.182 579.5 650.265 580.292 653.765 581.875C657.348 583.375 660.348 585.542 662.765 588.375C665.015 591.042 666.723 594.208 667.89 597.875C669.057 601.458 669.64 605.333 669.64 609.5C669.64 613.417 669.307 616.667 668.64 619.25L665.765 632C664.932 634.75 664.515 637.5 664.515 640.25C664.515 643.167 665.265 645.5 666.765 647.25C668.265 648.917 670.848 649.75 674.515 649.75C679.598 649.75 683.89 647.667 687.39 643.5C690.057 640.333 692.932 634.875 696.015 627.125H706.765C700.515 646.042 692.307 659.292 682.14 666.875C675.473 671.958 667.973 674.5 659.64 674.5ZM738.65 531.125C735.9 531.125 733.275 530.625 730.775 529.625C728.275 528.542 726.108 527.083 724.275 525.25C722.442 523.5 720.983 521.375 719.9 518.875C718.9 516.375 718.4 513.75 718.4 511C718.4 508.25 718.9 505.625 719.9 503.125C720.983 500.625 722.442 498.417 724.275 496.5C726.108 494.583 728.275 493.125 730.775 492.125C733.275 491.042 735.9 490.5 738.65 490.5C741.4 490.5 744.025 491.042 746.525 492.125C749.025 493.125 751.233 494.583 753.15 496.5C755.067 498.417 756.525 500.625 757.525 503.125C758.608 505.625 759.15 508.25 759.15 511C759.15 513.75 758.608 516.375 757.525 518.875C756.525 521.375 755.067 523.5 753.15 525.25C751.233 527.083 749.025 528.542 746.525 529.625C744.025 530.625 741.4 531.125 738.65 531.125ZM721.275 674.5C713.108 674.5 706.65 672.083 701.9 667.25C696.567 661.917 693.9 654.125 693.9 643.875C693.9 639.042 694.567 633.458 695.9 627.125L713.275 545H750.15L731.775 632C731.108 634.167 730.775 636.917 730.775 640.25C730.775 643.75 731.567 646.208 733.15 647.625C734.817 649.042 737.483 649.75 741.15 649.75C743.65 649.75 746.067 649.208 748.4 648.125C750.817 646.958 753.025 645.375 755.025 643.375C759.108 639.292 762.192 633.875 764.275 627.125H775.025C770.442 640.042 764.692 650.333 757.775 658C751.942 664.25 745.358 668.75 738.025 671.5C732.692 673.5 727.108 674.5 721.275 674.5ZM783.66 535.5H820.535L816.41 554.75C825.077 547.417 835.035 543.75 846.285 543.75C855.868 543.75 863.285 546.667 868.535 552.5C874.535 559.333 877.535 569.875 877.535 584.125C877.535 597.875 875.785 610.792 872.285 622.875C867.868 638.292 861.452 650.25 853.035 658.75C842.702 669.25 829.868 674.5 814.535 674.5C808.618 674.5 803.743 673.583 799.91 671.75C796.993 670.417 794.618 668.292 792.785 665.375L779.535 727.75L740.91 737L783.66 535.5ZM806.66 652.25C814.91 652.25 821.993 648.042 827.91 639.625C832.577 633.042 836.327 623.792 839.16 611.875C841.41 602.292 842.535 592.792 842.535 583.375C842.535 574.958 840.993 568.958 837.91 565.375C835.91 563.208 833.16 562.125 829.66 562.125C826.577 562.125 823.452 563.208 820.285 565.375C817.118 567.542 814.368 570.667 812.035 574.75L796.91 646.375C797.493 648.042 798.577 649.458 800.16 650.625C801.827 651.708 803.993 652.25 806.66 652.25Z" fill="#645B5B"/>
</svg>
