<svg width="134" height="126" viewBox="0 0 134 126" fill="none" xmlns="http://www.w3.org/2000/svg">
<path d="M133.362 41.6838C133.362 40.2509 132.112 39.0785 130.584 39.0785H94.465C92.9369 39.0785 91.6866 37.9062 91.6866 36.4733V2.60524C91.6866 1.17236 90.4363 0 88.9082 0H44.4541C42.926 0 41.6757 1.17236 41.6757 2.60524V36.4733C41.6757 37.9062 40.4254 39.0785 38.8973 39.0785H2.77838C1.25027 39.0785 0 40.2509 0 41.6838V83.3676C0 84.8004 1.25027 85.9728 2.77838 85.9728H38.8973C40.4254 85.9728 41.6757 87.1452 41.6757 88.578V122.446C41.6757 123.879 42.926 125.051 44.4541 125.051H88.9082C90.4363 125.051 91.6866 123.879 91.6866 122.446V88.578C91.6866 87.1452 92.9369 85.9728 94.465 85.9728H130.584C132.112 85.9728 133.362 84.8004 133.362 83.3676V41.6838Z" fill="white" fill-opacity="0.15"/>
</svg>
