<svg width="50" height="50" viewBox="0 0 50 50" fill="none" xmlns="http://www.w3.org/2000/svg">
<path d="M18.0623 33.8377L18.2845 34.5541L18.0623 33.8377ZM15.9377 33.8377L16.1599 33.1214L15.9377 33.8377ZM15.9377 26.1623L15.7155 25.4459L15.9377 26.1623ZM18.0623 26.1623L17.8401 26.8786L18.0623 26.1623ZM19.885 28.4971L19.1466 28.6281L19.885 28.4971ZM19.885 31.5029L20.6235 31.6339L19.885 31.5029ZM14.115 31.5029L14.8534 31.3719L14.115 31.5029ZM14.115 28.4971L14.8534 28.6281L14.115 28.4971ZM17.8401 33.1214C17.2872 33.2929 16.7128 33.2929 16.1599 33.1214L15.7155 34.5541C16.5578 34.8153 17.4421 34.8153 18.2845 34.5541L17.8401 33.1214ZM16.1599 26.8786C16.7128 26.7071 17.2872 26.7071 17.8401 26.8786L18.2845 25.4459C17.4421 25.1847 16.5578 25.1847 15.7155 25.4459L16.1599 26.8786ZM19.1466 28.6281C19.2845 29.4055 19.2845 30.5945 19.1466 31.3719L20.6235 31.6339C20.7922 30.6832 20.7922 29.3168 20.6235 28.3661L19.1466 28.6281ZM14.8534 31.3719C14.7155 30.5945 14.7155 29.4055 14.8534 28.6281L13.3765 28.3661C13.2078 29.3168 13.2078 30.6832 13.3765 31.6339L14.8534 31.3719ZM19.1466 31.3719C18.9792 32.3152 18.4215 32.9411 17.8401 33.1214L18.2845 34.5541C19.5294 34.1679 20.3838 32.985 20.6235 31.6339L19.1466 31.3719ZM20.6235 28.3661C20.3838 27.015 19.5294 25.8321 18.2845 25.4459L17.8401 26.8786C18.4215 27.0589 18.9792 27.6848 19.1466 28.6281L20.6235 28.3661ZM14.8534 28.6281C15.0208 27.6848 15.5785 27.0589 16.1599 26.8786L15.7155 25.4459C14.4706 25.8321 13.6162 27.015 13.3765 28.3661L14.8534 28.6281ZM13.3765 31.6339C13.6162 32.9849 14.4706 34.1679 15.7155 34.5541L16.1599 33.1214C15.5785 32.9411 15.0208 32.3153 14.8534 31.3719L13.3765 31.6339Z" fill="#F1F1F1"/>
<path d="M26.0623 33.8377L26.2845 34.5541L26.0623 33.8377ZM23.9377 33.8377L24.1599 33.1214L23.9377 33.8377ZM23.9377 21.1623L23.7155 20.4459L23.9377 21.1623ZM26.0623 21.1623L25.8401 21.8786L26.0623 21.1623ZM27.885 23.4971L27.1466 23.6281L27.885 23.4971ZM27.885 31.5029L28.6235 31.6339L27.885 31.5029ZM22.115 31.5029L22.8534 31.3719L22.115 31.5029ZM22.115 23.4971L22.8534 23.6281L22.8534 23.6281L22.115 23.4971ZM25.8401 33.1214C25.2872 33.2929 24.7128 33.2929 24.1599 33.1214L23.7155 34.5541C24.5578 34.8153 25.4421 34.8153 26.2845 34.5541L25.8401 33.1214ZM24.1599 21.8786C24.7128 21.7071 25.2872 21.7071 25.8401 21.8786L26.2845 20.4459C25.4421 20.1847 24.5578 20.1847 23.7155 20.4459L24.1599 21.8786ZM27.1466 23.6281C27.1729 23.7764 27.2018 24.266 27.2215 25.0109C27.2405 25.726 27.25 26.6118 27.25 27.5C27.25 28.3882 27.2405 29.274 27.2215 29.9891C27.2018 30.734 27.1729 31.2236 27.1466 31.3719L28.6235 31.6339C28.6738 31.3502 28.7024 30.7311 28.721 30.0288C28.7404 29.2969 28.75 28.3972 28.75 27.5C28.75 26.6028 28.7404 25.7031 28.721 24.9712C28.7024 24.2689 28.6738 23.6498 28.6235 23.3661L27.1466 23.6281ZM22.8534 31.3719C22.8271 31.2236 22.7982 30.734 22.7785 29.9891C22.7595 29.274 22.75 28.3882 22.75 27.5C22.75 26.6118 22.7595 25.726 22.7785 25.0109C22.7982 24.266 22.8271 23.7764 22.8534 23.6281L21.3765 23.3661C21.3262 23.6498 21.2976 24.2689 21.279 24.9712C21.2596 25.7031 21.25 26.6028 21.25 27.5C21.25 28.3972 21.2596 29.2969 21.279 30.0288C21.2976 30.7311 21.3262 31.3502 21.3765 31.6339L22.8534 31.3719ZM27.1466 31.3719C26.9792 32.3152 26.4215 32.9411 25.8401 33.1214L26.2845 34.5541C27.5294 34.1679 28.3838 32.985 28.6235 31.6339L27.1466 31.3719ZM28.6235 23.3661C28.3838 22.015 27.5294 20.8321 26.2845 20.4459L25.8401 21.8786C26.4215 22.0589 26.9792 22.6848 27.1466 23.6281L28.6235 23.3661ZM22.8534 23.6281C23.0208 22.6848 23.5785 22.0589 24.1599 21.8786L23.7155 20.4459C22.4706 20.8321 21.6162 22.015 21.3765 23.3661L22.8534 23.6281ZM21.3765 31.6339C21.6162 32.9849 22.4706 34.1679 23.7155 34.5541L24.1599 33.1214C23.5785 32.9411 23.0208 32.3153 22.8534 31.3719L21.3765 31.6339Z" fill="#F1F1F1"/>
<path d="M34.0623 33.8377L34.2845 34.5541L34.0623 33.8377ZM31.9377 33.8377L32.1599 33.1214L31.9377 33.8377ZM31.9377 16.1623L31.7155 15.4459L31.9377 16.1623ZM34.0623 16.1623L33.8401 16.8786L34.0623 16.1623ZM35.885 18.4971L35.1466 18.6281L35.885 18.4971ZM35.885 31.5029L36.6235 31.6339L35.885 31.5029ZM30.115 31.5029L30.8534 31.3719L30.115 31.5029ZM30.115 18.4971L30.8534 18.6281L30.8534 18.6281L30.115 18.4971ZM33.8401 33.1214C33.2872 33.2929 32.7128 33.2929 32.1599 33.1214L31.7155 34.5541C32.5578 34.8153 33.4421 34.8153 34.2845 34.5541L33.8401 33.1214ZM32.1599 16.8786C32.7128 16.7071 33.2872 16.7071 33.8401 16.8786L34.2845 15.4459C33.4421 15.1847 32.5578 15.1847 31.7155 15.4459L32.1599 16.8786ZM35.1466 18.6281C35.1462 18.6261 35.1486 18.6404 35.1524 18.6797C35.1559 18.716 35.1596 18.7639 35.1635 18.8242C35.1713 18.9448 35.1788 19.103 35.1858 19.296C35.1999 19.6814 35.2118 20.1904 35.2214 20.7843C35.2404 21.9713 35.25 23.4848 35.25 25C35.25 26.5152 35.2404 28.0287 35.2214 29.2157C35.2118 29.8096 35.1999 30.3186 35.1858 30.704C35.1788 30.897 35.1713 31.0552 35.1635 31.1758C35.1597 31.2361 35.1559 31.284 35.1524 31.3203C35.1486 31.3596 35.1462 31.3739 35.1466 31.3719L36.6235 31.6339C36.6539 31.4628 36.6712 31.1319 36.6848 30.7589C36.6995 30.3587 36.7116 29.8381 36.7212 29.2398C36.7404 28.0422 36.75 26.5203 36.75 25C36.75 23.4797 36.7404 21.9578 36.7212 20.7602C36.7115 20.1619 36.6995 19.6413 36.6848 19.2411C36.6712 18.8681 36.6539 18.5372 36.6235 18.3661L35.1466 18.6281ZM30.8534 31.3719C30.8538 31.3739 30.8514 31.3596 30.8476 31.3203C30.8441 31.284 30.8404 31.2361 30.8365 31.1758C30.8287 31.0552 30.8212 30.897 30.8142 30.704C30.8001 30.3186 30.7882 29.8096 30.7786 29.2157C30.7596 28.0287 30.75 26.5152 30.75 25C30.75 23.4848 30.7596 21.9713 30.7786 20.7843C30.7882 20.1904 30.8001 19.6814 30.8142 19.296C30.8212 19.103 30.8287 18.9448 30.8365 18.8242C30.8403 18.7639 30.8441 18.716 30.8476 18.6797C30.8514 18.6404 30.8538 18.6261 30.8534 18.6281L29.3765 18.3661C29.3461 18.5372 29.3288 18.8681 29.3152 19.2411C29.3005 19.6413 29.2884 20.1619 29.2788 20.7602C29.2596 21.9578 29.25 23.4797 29.25 25C29.25 26.5203 29.2596 28.0422 29.2788 29.2398C29.2885 29.8381 29.3005 30.3587 29.3152 30.7589C29.3288 31.1319 29.3461 31.4628 29.3765 31.6339L30.8534 31.3719ZM35.1466 31.3719C34.9792 32.3152 34.4215 32.9411 33.8401 33.1214L34.2845 34.5541C35.5294 34.1679 36.3838 32.985 36.6235 31.6339L35.1466 31.3719ZM36.6235 18.3661C36.3838 17.015 35.5294 15.8321 34.2845 15.4459L33.8401 16.8786C34.4215 17.0589 34.9792 17.6848 35.1466 18.6281L36.6235 18.3661ZM30.8534 18.6281C31.0208 17.6848 31.5785 17.0589 32.1599 16.8786L31.7155 15.4459C30.4706 15.8321 29.6162 17.015 29.3765 18.3661L30.8534 18.6281ZM29.3765 31.6339C29.6162 32.9849 30.4706 34.1679 31.7155 34.5541L32.1599 33.1214C31.5785 32.9411 31.0208 32.3153 30.8534 31.3719L29.3765 31.6339Z" fill="#F1F1F1"/>
</svg>
