<svg width="24" height="24" viewBox="0 0 24 24" fill="none" xmlns="http://www.w3.org/2000/svg">
<path d="M20.7825 3.21756C20.6813 3.11681 20.5534 3.04706 20.4139 3.0165C20.2744 2.98594 20.1291 2.99585 19.995 3.04506L3.495 9.04506C3.3527 9.09903 3.23019 9.19502 3.14374 9.32027C3.05729 9.44552 3.01099 9.59411 3.01099 9.74631C3.01099 9.8985 3.05729 10.0471 3.14374 10.1723C3.23019 10.2976 3.3527 10.3936 3.495 10.4476L10.695 13.3276L13.575 20.5276C13.6291 20.6636 13.7219 20.7808 13.8418 20.8648C13.9618 20.9488 14.1036 20.9958 14.25 21.0001C14.4016 20.9969 14.5486 20.948 14.6718 20.8596C14.795 20.7713 14.8885 20.6476 14.94 20.5051L20.94 4.00506C20.9911 3.87236 21.0034 3.72788 20.9755 3.58845C20.9477 3.44902 20.8807 3.32039 20.7825 3.21756ZM14.25 18.1501L12.1575 12.9001L15.75 9.30756L14.6925 8.25006L11.07 11.8726L5.85 9.75006L18.9975 5.00256L14.25 18.1501Z" fill="#FF4242"/>
</svg>
