<svg width="186" height="14" viewBox="0 0 186 14" fill="none" xmlns="http://www.w3.org/2000/svg">
<path opacity="0.5" d="M3.39304 1.15771C2.80906 1.40316 2.35838 1.76709 2.04099 2.24951C1.72784 2.73193 1.57127 3.31803 1.57127 4.00781C1.57127 4.28711 1.603 4.50293 1.66648 4.65527C1.68341 4.71029 1.70457 4.75895 1.72996 4.80127C1.74688 4.83089 1.75535 4.86051 1.75535 4.89014C1.28985 4.89014 0.944964 4.79704 0.72068 4.61084C0.483701 4.41195 0.365211 4.08398 0.365211 3.62695C0.365211 3.34766 0.424456 3.06836 0.542946 2.78906C0.665667 2.50977 0.83917 2.24105 1.06345 1.98291C1.27927 1.73324 1.53318 1.5026 1.82517 1.29102C2.11716 1.07943 2.43455 0.895345 2.77732 0.73877C3.50519 0.412923 4.22035 0.25 4.92283 0.25C5.11749 0.25 5.29099 0.258464 5.44334 0.275391L4.61179 4.14746H6.52244L7.35398 0.275391H9.22654L7.16355 10H5.29099L6.33201 5.1123H4.42136L3.38035 10H1.50779L3.39304 1.15771ZM13.6736 10.0762C13.1784 10.0762 12.7785 9.92171 12.4738 9.61279C12.1184 9.24886 11.9406 8.70719 11.9406 7.98779C11.9406 7.68311 11.9724 7.36149 12.0359 7.02295C12.0951 6.68441 12.184 6.3501 12.3025 6.02002C12.5733 5.27523 12.9436 4.67432 13.4133 4.21729C13.955 3.69678 14.5792 3.43652 15.2859 3.43652C15.6371 3.43652 15.8995 3.49788 16.073 3.62061C16.2507 3.7391 16.3396 3.89779 16.3396 4.09668V4.19189L16.4792 3.5H18.3518L17.4187 7.91797C17.3806 8.04492 17.3615 8.18457 17.3615 8.33691C17.3615 8.70931 17.5393 8.89551 17.8947 8.89551C18.1317 8.89551 18.3475 8.7749 18.5422 8.53369C18.7072 8.33057 18.8427 8.04281 18.9485 7.67041H19.4944C19.2616 8.33057 18.9802 8.85319 18.6501 9.23828C18.3708 9.55566 18.0556 9.78418 17.7043 9.92383C17.4462 10.0254 17.1732 10.0762 16.8855 10.0762C16.5173 10.0762 16.2232 9.97673 16.0031 9.77783C15.7873 9.57471 15.6561 9.27637 15.6096 8.88281C15.3641 9.22982 15.106 9.50065 14.8352 9.69531C14.4882 9.94922 14.101 10.0762 13.6736 10.0762ZM14.5178 8.81934C14.6151 8.81934 14.7167 8.79395 14.8225 8.74316C14.9325 8.69238 15.0383 8.62044 15.1399 8.52734C15.3684 8.30729 15.5207 8.02165 15.5969 7.67041L16.219 4.73779C16.219 4.69548 16.2084 4.64681 16.1872 4.5918C16.1703 4.53255 16.1449 4.47754 16.1111 4.42676C16.0095 4.30404 15.8677 4.24268 15.6858 4.24268C15.5123 4.24268 15.343 4.2998 15.1779 4.41406C15.0171 4.52832 14.8648 4.68701 14.7209 4.89014C14.467 5.2583 14.2575 5.73861 14.0925 6.33105C14.0163 6.59342 13.9592 6.85368 13.9211 7.11182C13.883 7.36572 13.864 7.59635 13.864 7.80371C13.864 8.23535 13.9444 8.52734 14.1052 8.67969C14.1602 8.73893 14.2216 8.77702 14.2893 8.79395C14.357 8.81087 14.4332 8.81934 14.5178 8.81934ZM23.9414 10.0762C23.3489 10.0762 22.8982 9.93229 22.5893 9.64453C22.2804 9.35254 22.1259 8.94206 22.1259 8.41309C22.1259 8.12956 22.1556 7.882 22.2148 7.67041L23.6049 1.15771L25.5283 0.897461L24.9062 3.82373C25.1559 3.67139 25.3675 3.56982 25.541 3.51904C25.6679 3.48096 25.8118 3.46191 25.9726 3.46191C26.4593 3.46191 26.8295 3.62484 27.0835 3.95068C27.367 4.31885 27.5087 4.89648 27.5087 5.68359C27.5087 5.95443 27.4834 6.24854 27.4326 6.56592C27.3818 6.87907 27.3035 7.1901 27.1977 7.49902C26.9438 8.23958 26.5756 8.83203 26.0932 9.27637C25.5092 9.80957 24.792 10.0762 23.9414 10.0762ZM24.6713 8.81934C24.9337 8.81934 25.1919 8.64372 25.4458 8.29248C25.6658 7.97933 25.8478 7.56885 25.9917 7.06104C26.1271 6.56169 26.1948 6.08561 26.1948 5.63281C26.1948 5.28158 26.1398 4.99382 26.0297 4.76953C25.9705 4.64681 25.8964 4.5516 25.8076 4.48389C25.7187 4.41618 25.6171 4.38232 25.5029 4.38232C25.3548 4.38232 25.2215 4.39714 25.103 4.42676C24.9253 4.47331 24.8025 4.53678 24.7348 4.61719L24.0239 7.91797C23.9985 8.02376 23.9858 8.12321 23.9858 8.21631C23.9858 8.61833 24.2143 8.81934 24.6713 8.81934ZM33.111 10.0762C32.472 10.0762 31.979 9.91536 31.632 9.59375C31.2639 9.25098 31.0798 8.72412 31.0798 8.01318C31.0798 7.74658 31.1073 7.45036 31.1623 7.12451C31.2131 6.79867 31.2914 6.47282 31.3972 6.14697C31.5157 5.78304 31.6659 5.43815 31.8478 5.1123C32.034 4.78646 32.2499 4.4987 32.4953 4.24902C33.0624 3.6735 33.7606 3.38574 34.59 3.38574C35.119 3.38574 35.5041 3.5127 35.7453 3.7666C35.9315 3.96549 36.0246 4.25326 36.0246 4.62988C36.0246 4.99805 35.9442 5.34505 35.7834 5.6709C35.6226 5.99251 35.4004 6.27816 35.1169 6.52783C34.8334 6.77327 34.5117 6.97005 34.152 7.11816C33.7923 7.26204 33.4199 7.34668 33.0349 7.37207C33.0137 7.59212 33.0031 7.76562 33.0031 7.89258C33.0031 8.31576 33.0835 8.60775 33.2443 8.76855C33.384 8.91243 33.6167 8.98438 33.9426 8.98438C34.4123 8.98438 34.8418 8.85742 35.2311 8.60352C35.3962 8.49772 35.5549 8.37288 35.7072 8.229C35.8596 8.08089 36.0373 7.89469 36.2404 7.67041H36.6848C36.2743 8.36442 35.8024 8.91667 35.2692 9.32715C34.6133 9.8265 33.8939 10.0762 33.111 10.0762ZM33.1364 6.75C33.3776 6.73307 33.6125 6.66325 33.841 6.54053C34.0695 6.41781 34.2727 6.257 34.4504 6.05811C34.6281 5.85498 34.7678 5.62858 34.8693 5.37891C34.9709 5.125 35.0217 4.86686 35.0217 4.60449C35.0217 4.43099 34.9963 4.2998 34.9455 4.21094C34.899 4.11784 34.8164 4.07129 34.6979 4.07129C34.5414 4.07129 34.3827 4.14746 34.2219 4.2998C34.0653 4.45215 33.913 4.66162 33.7648 4.92822C33.6294 5.1779 33.5067 5.46143 33.3967 5.77881C33.2866 6.09619 33.1999 6.41992 33.1364 6.75ZM40.3828 3.5H42.2553L42.0903 4.30615C42.3865 4.04378 42.6277 3.85758 42.8139 3.74756C43.1017 3.58252 43.3831 3.5 43.6581 3.5C43.9374 3.5 44.1617 3.59945 44.331 3.79834C44.4072 3.88721 44.4643 3.99089 44.5024 4.10938C44.5405 4.22363 44.5595 4.34635 44.5595 4.47754C44.5595 4.59603 44.5405 4.71029 44.5024 4.82031C44.4643 4.93034 44.4072 5.02979 44.331 5.11865C44.2464 5.21175 44.1427 5.28581 44.02 5.34082C43.9015 5.39583 43.7682 5.42334 43.6201 5.42334C43.5058 5.42334 43.4148 5.4043 43.3471 5.36621C43.2794 5.32812 43.2265 5.27311 43.1884 5.20117C43.1546 5.12923 43.1313 5.05941 43.1186 4.9917C43.0805 4.80973 43.0424 4.68913 43.0043 4.62988C42.9747 4.58757 42.9282 4.56641 42.8647 4.56641C42.6827 4.56641 42.5283 4.60449 42.4013 4.68066C42.2744 4.75684 42.1135 4.88379 41.9189 5.06152L40.8779 10H39.0053L40.3828 3.5ZM57.6113 1.39258H57.4589C56.6887 1.39258 56.109 1.5682 55.7197 1.91943C55.2499 2.34261 55.0151 3.04297 55.0151 4.02051C55.0151 4.29134 55.0447 4.50716 55.1039 4.66797C55.1209 4.72298 55.142 4.77165 55.1674 4.81396C55.1843 4.84359 55.1928 4.87321 55.1928 4.90283C54.7231 4.90283 54.3803 4.80973 54.1645 4.62354C53.9233 4.42041 53.8027 4.09456 53.8027 3.646C53.8027 3.19743 53.8852 2.77214 54.0502 2.37012C54.2195 1.96387 54.4755 1.6084 54.8183 1.30371C55.1864 0.973633 55.6541 0.717611 56.2211 0.535645C56.7924 0.353678 57.4653 0.262695 58.2397 0.262695C58.684 0.262695 59.1093 0.288086 59.5155 0.338867C59.6425 0.351562 59.8075 0.374837 60.0107 0.408691C60.3492 0.472168 60.6751 0.514486 60.9882 0.535645C61.1405 0.552572 61.3331 0.561035 61.5658 0.561035C61.8536 0.561035 62.1287 0.535645 62.391 0.484863C62.6534 0.434082 62.8819 0.36849 63.0766 0.288086C63.0554 0.855143 62.9094 1.27197 62.6386 1.53857C62.372 1.80518 61.9763 1.93848 61.4516 1.93848C61.1681 1.93848 60.8824 1.9152 60.5947 1.86865C60.3069 1.8221 59.9197 1.75016 59.433 1.65283L57.6366 10H55.7704L57.6113 1.39258ZM64.8068 10.0762C64.3117 10.0762 63.9118 9.92171 63.6071 9.61279C63.2516 9.24886 63.0739 8.70719 63.0739 7.98779C63.0739 7.68311 63.1056 7.36149 63.1691 7.02295C63.2283 6.68441 63.3172 6.3501 63.4357 6.02002C63.7065 5.27523 64.0768 4.67432 64.5465 4.21729C65.0882 3.69678 65.7124 3.43652 66.4191 3.43652C66.7703 3.43652 67.0327 3.49788 67.2062 3.62061C67.3839 3.7391 67.4728 3.89779 67.4728 4.09668V4.19189L67.6125 3.5H69.485L68.5519 7.91797C68.5138 8.04492 68.4948 8.18457 68.4948 8.33691C68.4948 8.70931 68.6725 8.89551 69.028 8.89551C69.265 8.89551 69.4808 8.7749 69.6754 8.53369C69.8405 8.33057 69.9759 8.04281 70.0817 7.67041H70.6276C70.3948 8.33057 70.1134 8.85319 69.7834 9.23828C69.5041 9.55566 69.1888 9.78418 68.8376 9.92383C68.5794 10.0254 68.3065 10.0762 68.0187 10.0762C67.6505 10.0762 67.3564 9.97673 67.1364 9.77783C66.9206 9.57471 66.7894 9.27637 66.7428 8.88281C66.4974 9.22982 66.2392 9.50065 65.9684 9.69531C65.6214 9.94922 65.2342 10.0762 64.8068 10.0762ZM65.651 8.81934C65.7484 8.81934 65.8499 8.79395 65.9557 8.74316C66.0657 8.69238 66.1715 8.62044 66.2731 8.52734C66.5016 8.30729 66.654 8.02165 66.7301 7.67041L67.3522 4.73779C67.3522 4.69548 67.3416 4.64681 67.3205 4.5918C67.3035 4.53255 67.2781 4.47754 67.2443 4.42676C67.1427 4.30404 67.001 4.24268 66.819 4.24268C66.6455 4.24268 66.4762 4.2998 66.3112 4.41406C66.1504 4.52832 65.998 4.68701 65.8542 4.89014C65.6003 5.2583 65.3908 5.73861 65.2257 6.33105C65.1496 6.59342 65.0924 6.85368 65.0544 7.11182C65.0163 7.36572 64.9972 7.59635 64.9972 7.80371C64.9972 8.23535 65.0776 8.52734 65.2384 8.67969C65.2934 8.73893 65.3548 8.77702 65.4225 8.79395C65.4902 8.81087 65.5664 8.81934 65.651 8.81934ZM78.2357 10.0762C77.6983 10.0762 77.2899 9.94922 77.0106 9.69531C76.7356 9.44141 76.598 9.07536 76.598 8.59717C76.598 8.38981 76.6234 8.16341 76.6742 7.91797L76.7821 7.41016C76.816 7.27897 76.8329 7.12028 76.8329 6.93408C76.8329 6.73096 76.7969 6.5765 76.725 6.4707C76.6531 6.36068 76.5325 6.30566 76.3632 6.30566C76.2235 6.30566 76.0775 6.34587 75.9252 6.42627C75.7729 6.50667 75.5993 6.62728 75.4047 6.78809L74.7255 10H72.8529L74.7382 1.15771L76.6615 0.897461L75.6903 5.47412L78.1977 3.5H79.4862L76.8837 5.30908C77.0318 5.271 77.1757 5.25195 77.3153 5.25195C77.5523 5.25195 77.7597 5.29215 77.9374 5.37256C78.1194 5.44873 78.2717 5.55876 78.3944 5.70264C78.5087 5.83805 78.5954 5.99886 78.6547 6.18506C78.7139 6.36702 78.7436 6.5638 78.7436 6.77539C78.7436 6.97428 78.7266 7.13932 78.6928 7.27051L78.5468 7.91797C78.5045 8.05762 78.4833 8.19727 78.4833 8.33691C78.4833 8.48503 78.5214 8.60352 78.5976 8.69238C78.6737 8.77702 78.8049 8.81934 78.9911 8.81934C79.2492 8.81934 79.4672 8.71354 79.6449 8.50195C79.7803 8.34115 79.9263 8.06396 80.0829 7.67041H80.6288C80.3114 8.63102 79.8946 9.30387 79.3783 9.68896C79.0398 9.9471 78.6589 10.0762 78.2357 10.0762ZM85.5201 2.79541C85.3805 2.79541 85.2472 2.77002 85.1202 2.71924C84.9933 2.66423 84.8833 2.59017 84.7902 2.49707C84.6971 2.4082 84.623 2.30029 84.568 2.17334C84.5172 2.04639 84.4918 1.91309 84.4918 1.77344C84.4918 1.63379 84.5172 1.50049 84.568 1.37354C84.623 1.24658 84.6971 1.13444 84.7902 1.03711C84.8833 0.939779 84.9933 0.865723 85.1202 0.814941C85.2472 0.759928 85.3805 0.732422 85.5201 0.732422C85.6598 0.732422 85.7931 0.759928 85.9201 0.814941C86.047 0.865723 86.1591 0.939779 86.2565 1.03711C86.3538 1.13444 86.4279 1.24658 86.4786 1.37354C86.5337 1.50049 86.5612 1.63379 86.5612 1.77344C86.5612 1.91309 86.5337 2.04639 86.4786 2.17334C86.4279 2.30029 86.3538 2.4082 86.2565 2.49707C86.1591 2.59017 86.047 2.66423 85.9201 2.71924C85.7931 2.77002 85.6598 2.79541 85.5201 2.79541ZM84.6378 10.0762C84.2231 10.0762 83.8951 9.95345 83.6539 9.70801C83.3831 9.43717 83.2477 9.0415 83.2477 8.521C83.2477 8.27555 83.2815 7.99202 83.3493 7.67041L84.2316 3.5H86.1041L85.171 7.91797C85.1372 8.02799 85.1202 8.16764 85.1202 8.33691C85.1202 8.51465 85.1604 8.63949 85.2409 8.71143C85.3255 8.78337 85.4609 8.81934 85.6471 8.81934C85.7741 8.81934 85.8968 8.79183 86.0153 8.73682C86.138 8.67757 86.2501 8.59717 86.3517 8.49561C86.559 8.28825 86.7156 8.01318 86.8214 7.67041H87.3673C87.1346 8.32633 86.8426 8.84896 86.4913 9.23828C86.1951 9.55566 85.8608 9.78418 85.4884 9.92383C85.2176 10.0254 84.934 10.0762 84.6378 10.0762ZM91.078 3.01758H92.9506L92.7411 3.99512C93.1812 3.62272 93.6869 3.43652 94.2582 3.43652C94.7448 3.43652 95.1215 3.58464 95.3881 3.88086C95.6927 4.22786 95.8451 4.76318 95.8451 5.48682C95.8451 6.18506 95.7562 6.84098 95.5785 7.45459C95.3542 8.23747 95.0284 8.84473 94.601 9.27637C94.0762 9.80957 93.4245 10.0762 92.6459 10.0762C92.3454 10.0762 92.0979 10.0296 91.9032 9.93652C91.7551 9.86882 91.6345 9.7609 91.5414 9.61279L90.8685 12.7803L88.9071 13.25L91.078 3.01758ZM92.246 8.94629C92.6649 8.94629 93.0246 8.73258 93.3251 8.30518C93.5621 7.97087 93.7525 7.50114 93.8964 6.896C94.0106 6.40934 94.0677 5.92692 94.0677 5.44873C94.0677 5.02132 93.9895 4.71663 93.8329 4.53467C93.7313 4.42464 93.5917 4.36963 93.4139 4.36963C93.2574 4.36963 93.0987 4.42464 92.9379 4.53467C92.7771 4.64469 92.6374 4.80339 92.5189 5.01074L91.7509 8.64795C91.7805 8.73258 91.8355 8.80452 91.9159 8.86377C92.0005 8.91878 92.1106 8.94629 92.246 8.94629ZM108.497 1.729L110.42 1.4751L109.5 5.81689C109.91 5.78727 110.302 5.59684 110.674 5.24561C111.013 4.92822 111.281 4.5262 111.48 4.03955C111.675 3.57406 111.772 3.1001 111.772 2.61768C111.772 2.10986 111.647 1.69303 111.398 1.36719C111.262 1.20215 111.091 1.0752 110.884 0.986328C110.676 0.893229 110.435 0.84668 110.16 0.84668C109.635 0.84668 109.163 0.91862 108.744 1.0625C108.33 1.20638 107.976 1.41374 107.684 1.68457C107.392 1.9554 107.17 2.2876 107.018 2.68115C106.87 3.07471 106.796 3.51693 106.796 4.00781C106.796 4.27865 106.825 4.49447 106.885 4.65527C106.902 4.71029 106.923 4.75895 106.948 4.80127C106.965 4.83089 106.973 4.86051 106.973 4.89014C106.504 4.89014 106.161 4.79704 105.945 4.61084C105.704 4.40771 105.583 4.07975 105.583 3.62695C105.583 3.34342 105.645 3.06413 105.767 2.78906C105.89 2.50977 106.064 2.24105 106.288 1.98291C106.5 1.73747 106.751 1.50895 107.043 1.29736C107.34 1.08154 107.659 0.895345 108.002 0.73877C108.721 0.412923 109.436 0.25 110.147 0.25C111.15 0.25 111.929 0.510254 112.483 1.03076C112.729 1.26351 112.911 1.53223 113.029 1.83691C113.152 2.1416 113.213 2.46533 113.213 2.80811C113.213 3.22705 113.126 3.64388 112.953 4.05859C112.784 4.47331 112.538 4.84359 112.217 5.16943C111.878 5.51644 111.474 5.7915 111.004 5.99463C110.539 6.19352 110.025 6.29297 109.462 6.29297H109.392L108.598 10H106.732L108.497 1.729ZM118.117 10.0508C117.474 10.0508 116.977 9.89421 116.626 9.58105C116.232 9.23405 116.035 8.70719 116.035 8.00049C116.035 7.73389 116.063 7.43978 116.118 7.11816C116.173 6.79232 116.257 6.46436 116.372 6.13428C116.634 5.34717 117.009 4.71875 117.495 4.24902C118.083 3.6735 118.784 3.38574 119.596 3.38574C120.709 3.38574 121.266 4.07764 121.266 5.46143V5.47412C121.291 5.48258 121.312 5.48682 121.329 5.48682H121.405C121.693 5.48682 122.034 5.40641 122.427 5.24561C122.774 5.10173 123.102 4.92188 123.411 4.70605L123.525 5.06152C123.272 5.32812 122.944 5.55452 122.542 5.74072C122.144 5.92692 121.704 6.06022 121.221 6.14062C121.171 6.72884 121.056 7.26628 120.879 7.75293C120.701 8.23535 120.472 8.65007 120.193 8.99707C119.918 9.33561 119.603 9.59587 119.247 9.77783C118.892 9.9598 118.515 10.0508 118.117 10.0508ZM118.638 8.88281C118.79 8.88281 118.945 8.8151 119.101 8.67969C119.262 8.54004 119.412 8.34749 119.552 8.10205C119.691 7.85661 119.812 7.56885 119.914 7.23877C120.015 6.90869 120.091 6.55534 120.142 6.17871C120.015 6.14486 119.924 6.08138 119.869 5.98828C119.818 5.89518 119.793 5.77669 119.793 5.63281C119.793 5.45508 119.829 5.30697 119.901 5.18848C119.973 5.06999 120.072 4.98324 120.199 4.92822C120.182 4.65316 120.138 4.45638 120.066 4.33789C120.028 4.27865 119.979 4.23633 119.92 4.21094C119.865 4.18555 119.793 4.17285 119.704 4.17285C119.412 4.17285 119.127 4.3929 118.847 4.83301C118.589 5.23079 118.378 5.72168 118.212 6.30566C118.052 6.87695 117.971 7.38477 117.971 7.8291C117.971 8.04492 117.982 8.22054 118.003 8.35596C118.028 8.49137 118.069 8.59717 118.124 8.67334C118.174 8.74951 118.24 8.80452 118.32 8.83838C118.401 8.868 118.507 8.88281 118.638 8.88281ZM126.075 3.5H127.947L127.782 4.30615C128.078 4.04378 128.32 3.85758 128.506 3.74756C128.793 3.58252 129.075 3.5 129.35 3.5C129.629 3.5 129.854 3.59945 130.023 3.79834C130.099 3.88721 130.156 3.99089 130.194 4.10938C130.232 4.22363 130.251 4.34635 130.251 4.47754C130.251 4.59603 130.232 4.71029 130.194 4.82031C130.156 4.93034 130.099 5.02979 130.023 5.11865C129.938 5.21175 129.834 5.28581 129.712 5.34082C129.593 5.39583 129.46 5.42334 129.312 5.42334C129.198 5.42334 129.107 5.4043 129.039 5.36621C128.971 5.32812 128.918 5.27311 128.88 5.20117C128.846 5.12923 128.823 5.05941 128.81 4.9917C128.772 4.80973 128.734 4.68913 128.696 4.62988C128.667 4.58757 128.62 4.56641 128.556 4.56641C128.375 4.56641 128.22 4.60449 128.093 4.68066C127.966 4.75684 127.805 4.88379 127.611 5.06152L126.57 10H124.697L126.075 3.5ZM134.628 10.0762C134.214 10.0762 133.886 9.95345 133.645 9.70801C133.374 9.43717 133.238 9.0415 133.238 8.521C133.238 8.27555 133.272 7.99202 133.34 7.67041L134.121 4.02051H133.689L133.797 3.5H134.222L134.616 1.70361L136.539 1.44336L136.095 3.5H136.876L136.774 4.02051H135.993L135.162 7.91797C135.128 8.02799 135.111 8.16764 135.111 8.33691C135.111 8.51465 135.151 8.63949 135.232 8.71143C135.316 8.78337 135.452 8.81934 135.638 8.81934C135.765 8.81934 135.887 8.79183 136.006 8.73682C136.129 8.67757 136.241 8.59717 136.342 8.49561C136.55 8.28825 136.706 8.01318 136.812 7.67041H137.358C137.125 8.32633 136.833 8.84896 136.482 9.23828C136.186 9.55566 135.851 9.78418 135.479 9.92383C135.208 10.0254 134.925 10.0762 134.628 10.0762ZM141.64 10.0762C141.145 10.0762 140.745 9.92171 140.44 9.61279C140.085 9.24886 139.907 8.70719 139.907 7.98779C139.907 7.68311 139.939 7.36149 140.002 7.02295C140.062 6.68441 140.15 6.3501 140.269 6.02002C140.54 5.27523 140.91 4.67432 141.38 4.21729C141.921 3.69678 142.546 3.43652 143.252 3.43652C143.603 3.43652 143.866 3.49788 144.039 3.62061C144.217 3.7391 144.306 3.89779 144.306 4.09668V4.19189L144.446 3.5H146.318L145.385 7.91797C145.347 8.04492 145.328 8.18457 145.328 8.33691C145.328 8.70931 145.506 8.89551 145.861 8.89551C146.098 8.89551 146.314 8.7749 146.509 8.53369C146.674 8.33057 146.809 8.04281 146.915 7.67041H147.461C147.228 8.33057 146.947 8.85319 146.617 9.23828C146.337 9.55566 146.022 9.78418 145.671 9.92383C145.413 10.0254 145.14 10.0762 144.852 10.0762C144.484 10.0762 144.19 9.97673 143.97 9.77783C143.754 9.57471 143.623 9.27637 143.576 8.88281C143.331 9.22982 143.072 9.50065 142.802 9.69531C142.455 9.94922 142.067 10.0762 141.64 10.0762ZM142.484 8.81934C142.582 8.81934 142.683 8.79395 142.789 8.74316C142.899 8.69238 143.005 8.62044 143.106 8.52734C143.335 8.30729 143.487 8.02165 143.563 7.67041L144.185 4.73779C144.185 4.69548 144.175 4.64681 144.154 4.5918C144.137 4.53255 144.111 4.47754 144.077 4.42676C143.976 4.30404 143.834 4.24268 143.652 4.24268C143.479 4.24268 143.309 4.2998 143.144 4.41406C142.984 4.52832 142.831 4.68701 142.687 4.89014C142.433 5.2583 142.224 5.73861 142.059 6.33105C141.983 6.59342 141.926 6.85368 141.888 7.11182C141.849 7.36572 141.83 7.59635 141.83 7.80371C141.83 8.23535 141.911 8.52734 142.072 8.67969C142.127 8.73893 142.188 8.77702 142.256 8.79395C142.323 8.81087 142.4 8.81934 142.484 8.81934ZM151.47 10.0762C151.055 10.0762 150.727 9.95345 150.486 9.70801C150.215 9.43717 150.08 9.0415 150.08 8.521C150.08 8.27555 150.114 7.99202 150.181 7.67041L151.571 1.15771L153.495 0.897461L152.003 7.91797C151.969 8.02799 151.952 8.16764 151.952 8.33691C151.952 8.51465 151.992 8.63949 152.073 8.71143C152.157 8.78337 152.293 8.81934 152.479 8.81934C152.606 8.81934 152.729 8.79183 152.847 8.73682C152.97 8.67757 153.082 8.59717 153.184 8.49561C153.391 8.28825 153.548 8.01318 153.653 7.67041H154.199C153.967 8.32633 153.675 8.84896 153.323 9.23828C153.027 9.55566 152.693 9.78418 152.32 9.92383C152.05 10.0254 151.766 10.0762 151.47 10.0762ZM158.208 10.0762C157.794 10.0762 157.466 9.95345 157.224 9.70801C156.954 9.43717 156.818 9.0415 156.818 8.521C156.818 8.27555 156.852 7.99202 156.92 7.67041L157.802 3.5H159.675L158.741 7.91797C158.708 8.02799 158.691 8.16764 158.691 8.33691C158.691 8.51465 158.731 8.63949 158.811 8.71143C158.896 8.78337 159.031 8.81934 159.218 8.81934C159.345 8.81934 159.467 8.79183 159.586 8.73682C159.708 8.67757 159.821 8.59717 159.922 8.49561C160.13 8.28825 160.286 8.01318 160.392 7.67041H160.938C160.705 8.32633 160.413 8.84896 160.062 9.23828C159.766 9.55566 159.431 9.78418 159.059 9.92383C158.788 10.0254 158.505 10.0762 158.208 10.0762ZM168.349 10.0762C167.812 10.0762 167.414 9.92383 167.156 9.61914C166.932 9.35677 166.819 9.02035 166.819 8.60986C166.819 8.4152 166.843 8.1888 166.889 7.93066C166.94 7.67253 167.014 7.34033 167.111 6.93408C167.209 6.51937 167.281 6.18929 167.327 5.94385C167.378 5.69417 167.403 5.47835 167.403 5.29639C167.403 4.85205 167.247 4.62988 166.934 4.62988C166.714 4.62988 166.51 4.74626 166.324 4.979C166.168 5.1779 166.032 5.46143 165.918 5.82959L165.036 10H163.163L164.541 3.5H166.413L166.273 4.17285C166.527 3.88932 166.8 3.69043 167.092 3.57617C167.308 3.49154 167.541 3.44922 167.791 3.44922C168.231 3.44922 168.578 3.56348 168.832 3.79199C169.102 4.04167 169.238 4.41618 169.238 4.91553C169.238 5.21598 169.183 5.60742 169.073 6.08984C169.043 6.22949 168.994 6.43896 168.927 6.71826C168.804 7.18799 168.715 7.5625 168.66 7.8418C168.626 8.01953 168.609 8.16341 168.609 8.27344C168.609 8.44694 168.647 8.58236 168.724 8.67969C168.804 8.77279 168.939 8.81934 169.13 8.81934C169.388 8.81934 169.606 8.71354 169.784 8.50195C169.919 8.34115 170.065 8.06396 170.222 7.67041H170.768C170.446 8.62256 170.04 9.28906 169.549 9.66992C169.202 9.94076 168.802 10.0762 168.349 10.0762ZM174.77 10.0762C174.356 10.0762 174.028 9.95345 173.786 9.70801C173.516 9.43717 173.38 9.0415 173.38 8.521C173.38 8.27555 173.414 7.99202 173.482 7.67041L174.364 3.5H176.237L175.303 7.91797C175.27 8.02799 175.253 8.16764 175.253 8.33691C175.253 8.51465 175.293 8.63949 175.373 8.71143C175.458 8.78337 175.593 8.81934 175.78 8.81934C175.907 8.81934 176.029 8.79183 176.148 8.73682C176.27 8.67757 176.383 8.59717 176.484 8.49561C176.692 8.28825 176.848 8.01318 176.954 7.67041H177.5C177.267 8.32633 176.975 8.84896 176.624 9.23828C176.328 9.55566 175.993 9.78418 175.621 9.92383C175.35 10.0254 175.067 10.0762 174.77 10.0762ZM183.534 4.20459H182.81C182.577 4.20459 182.408 4.21517 182.302 4.23633C182.163 4.26172 182.093 4.31885 182.093 4.40771C182.093 4.42887 182.101 4.44157 182.118 4.4458C182.152 4.45426 182.184 4.48389 182.213 4.53467C182.226 4.56429 182.232 4.61719 182.232 4.69336C182.232 4.92188 182.161 5.09749 182.017 5.22021C181.881 5.33024 181.72 5.38525 181.534 5.38525C181.382 5.38525 181.246 5.33659 181.128 5.23926C181.001 5.13346 180.938 4.9917 180.938 4.81396C180.938 4.67855 180.974 4.53467 181.045 4.38232C181.117 4.22575 181.217 4.08398 181.344 3.95703C181.479 3.81738 181.64 3.70736 181.826 3.62695C182.017 3.54232 182.222 3.5 182.442 3.5H185.787L182.601 8.99707C182.643 9.0013 182.791 9.01611 183.045 9.0415C183.223 9.06689 183.403 9.07959 183.585 9.07959C183.762 9.07959 183.904 9.06055 184.01 9.02246C184.116 8.98438 184.179 8.91667 184.2 8.81934C184.116 8.81087 184.052 8.78337 184.01 8.73682C183.972 8.68604 183.953 8.62256 183.953 8.54639C183.953 8.48291 183.967 8.41943 183.997 8.35596C184.031 8.28825 184.078 8.22689 184.137 8.17188C184.281 8.04915 184.46 7.98779 184.676 7.98779C184.871 7.98779 185.015 8.04492 185.108 8.15918C185.205 8.27344 185.254 8.42367 185.254 8.60986C185.254 8.76221 185.218 8.9209 185.146 9.08594C185.074 9.24674 184.97 9.39486 184.835 9.53027C184.691 9.67415 184.52 9.78841 184.321 9.87305C184.126 9.95768 183.908 10 183.667 10H180.22L183.534 4.20459Z" fill="white"/>
</svg>
