<svg width="140" height="135" viewBox="0 0 140 135" fill="none" xmlns="http://www.w3.org/2000/svg">
<path d="M69.7826 0C88.2901 0 106.04 7.07749 119.126 19.6755C132.213 32.2735 139.565 49.3601 139.565 67.1763C139.565 84.9926 132.213 102.079 119.126 114.677C106.04 127.275 88.2901 134.353 69.7826 134.353C51.2751 134.353 33.5256 127.275 20.4389 114.677C7.35207 102.079 0 84.9926 0 67.1763C0 49.3601 7.35207 32.2735 20.4389 19.6755C33.5256 7.07749 51.2751 0 69.7826 0ZM57.2862 11.606L69.7826 19.6362L82.2791 11.6163C74.0427 9.90661 65.5225 9.90661 57.2862 11.6163V11.606ZM44.4784 15.8019C36.6452 19.3904 29.7259 24.5907 24.2092 31.0355L31.1552 52.7799L41.9554 56.2421L64.4147 39.8097V28.6068L44.4784 15.8019ZM16.619 42.4244C13.6512 48.3126 11.7694 54.6527 11.0579 61.1615L20.559 54.7642L16.619 42.4244ZM11.1223 73.7389C12.1959 82.6786 15.4166 90.9981 20.2799 98.1808H40.7208L47.5381 91.6182L38.7025 66.0912L27.7091 62.567L11.1223 73.7286V73.7389ZM29.2657 108.516C33.5923 112.464 38.5522 115.781 43.9738 118.313L39.4755 108.516H29.2765H29.2657ZM57.8229 122.85C65.7134 124.413 73.8519 124.413 81.7423 122.85L90.2235 104.495L83.664 98.1808H55.9012L49.3524 104.485L57.8229 122.85ZM95.5807 118.313C100.978 115.785 105.945 112.482 110.31 108.516H100.111L95.5807 118.313ZM119.275 98.1808C123.998 91.2151 127.176 83.1953 128.336 74.5657L111.76 62.598L100.863 66.0912L92.0271 91.6182L98.8444 98.1808H119.275ZM128.572 61.8229C127.918 55.0276 125.99 48.4027 122.882 42.2694L118.942 54.8779L128.572 61.8229ZM115.216 30.8701C109.722 24.5008 102.853 19.359 95.0869 15.8019L75.1505 28.6068V39.8097L97.6098 56.2421L108.388 52.7903L115.216 30.8701ZM49.2558 63.8692L57.5438 87.846H82.0214L90.3094 63.8795L69.7826 48.863L49.2558 63.8899V63.8692Z" fill="white" fill-opacity="0.15"/>
</svg>
