<svg width="131" height="155" viewBox="0 0 131 155" fill="none" xmlns="http://www.w3.org/2000/svg">
<path d="M107.87 105.321V154.913H45.1247V137.026H35.907C23.1066 137.026 12.7225 126.714 12.7225 113.978V97.6488H4.83852C3.57997 97.6475 2.37312 97.1512 1.48181 96.2683C0.590503 95.3855 0.0872339 94.188 0.0820312 92.9375C0.0820313 92.2823 0.200144 91.6613 0.436369 91.1063L12.7225 60.3667C12.7225 60.3667 13.9922 47.6337 15.1488 42.7586C20.2645 20.8255 44.8713 0.924103 71.5549 0.924103C104.016 0.924103 130.343 27.0844 130.343 59.3667C130.343 78.009 121.553 94.6245 107.87 105.321ZM27.1667 58.9731C25.432 58.9776 23.7698 59.6652 22.5443 60.8851C21.3188 62.105 20.63 63.7578 20.6287 65.4814C20.6248 67.209 21.3111 68.8676 22.5369 70.0929C23.7627 71.3183 25.4279 72.0101 27.1667 72.0166C28.0311 72.0172 28.8872 71.8487 29.686 71.5206C30.4849 71.1925 31.2109 70.7113 31.8225 70.1045C32.4342 69.4976 32.9196 68.777 33.251 67.9838C33.5824 67.1906 33.7533 66.3402 33.7539 65.4814C33.7468 63.7511 33.0493 62.0943 31.8144 60.8742C30.5796 59.6542 28.9082 58.9705 27.1667 58.9731ZM84.1289 44.7927C84.1289 46.4242 84.7812 47.9888 85.9422 49.1424C87.1033 50.296 88.678 50.9441 90.32 50.9441C91.962 50.9441 93.5367 50.296 94.6977 49.1424C95.8588 47.9888 96.511 46.4242 96.511 44.7927C96.511 43.1613 95.8588 41.5967 94.6977 40.4431C93.5367 39.2895 91.962 38.6414 90.32 38.6414C88.678 38.6414 87.1033 39.2895 85.9422 40.4431C84.7812 41.5967 84.1289 43.1613 84.1289 44.7927ZM37.3342 38.1133C37.3345 38.9235 37.4955 39.7256 37.808 40.4739C38.1205 41.2222 38.5783 41.9019 39.1553 42.4743C39.7324 43.0467 40.4172 43.5006 41.1709 43.8098C41.9245 44.1191 42.7321 44.2778 43.5474 44.2769C45.1946 44.2769 46.7744 43.6267 47.9391 42.4695C49.1038 41.3122 49.7582 39.7426 49.7582 38.106C49.7582 36.4693 49.1038 34.8998 47.9391 33.7425C46.7744 32.5852 45.1946 31.9351 43.5474 31.9351C42.7311 31.9351 41.9227 32.0949 41.1686 32.4055C40.4145 32.716 39.7293 33.1712 39.1523 33.7449C38.5753 34.3187 38.1177 34.9998 37.8058 35.7494C37.4938 36.4989 37.3336 37.3022 37.3342 38.1133ZM110.825 51.6409L119.824 50.103V41.497L111.155 40.013C110.743 38.4589 110.157 36.9557 109.407 35.5315L114.661 28.1186L108.566 22.0406L101.364 27.082C100.278 26.4418 99.1373 25.8977 97.9555 25.4561C97.6183 25.3339 97.2812 25.2434 96.9441 25.1407L95.3742 16.2047H86.7151L85.2534 24.8107C83.6797 25.2167 82.1581 25.8007 80.7184 26.5514L73.2675 21.3194L67.1232 27.4096L72.2266 34.5364C71.5759 35.6232 71.0257 36.7664 70.5829 37.9519C70.4525 38.2869 70.3688 38.6218 70.2606 38.9568L62.8268 40.2232V36.1207L57.1501 35.1525C56.8884 34.1739 56.5152 33.2282 56.0378 32.3336L59.5172 27.4487L55.4965 23.4611L50.7621 26.7788C50.0669 26.3645 49.3376 26.0095 48.582 25.7177C48.3827 25.6444 48.176 25.6273 47.9717 25.5637L46.9432 19.6788H41.291L40.3018 25.3265C39.3052 25.5881 38.3579 25.9744 37.4474 26.4463L32.5211 23.0014L28.5201 26.9891L31.8666 31.693C31.4482 32.3802 31.0932 33.1036 30.806 33.8543C30.7298 34.0572 30.683 34.2577 30.619 34.468L24.7282 35.4728V41.1181L30.4443 42.0911C30.7052 43.0618 31.0644 44.003 31.527 44.8979L28.0501 49.7876L32.0561 53.7801L36.8076 50.4551C37.4991 50.8585 38.2151 51.2326 38.9927 51.5211C39.192 51.5969 39.3987 51.6115 39.598 51.68L40.6266 57.5648L46.2763 57.56L47.268 51.9196C48.2544 51.6536 49.2083 51.2806 50.1125 50.8072L55.0191 54.2447L59.0399 50.2595L55.6983 45.5555C56.0993 44.8734 56.4709 44.1717 56.7539 43.4065C56.8351 43.2036 56.8499 42.9909 56.9212 42.783L61.2815 42.0349V49.0982L69.9357 50.5773C70.3442 52.147 70.9397 53.653 71.6927 55.0833L66.4391 62.4693L72.5465 68.5546L79.744 63.5133C80.8193 64.1367 81.9438 64.6892 83.1545 65.1318C83.4916 65.2589 83.8287 65.3445 84.1658 65.452L85.7357 74.393H93.2507L92.6306 77.9748C91.5454 78.2193 90.5218 78.6447 89.5572 79.1825L85.9646 76.6594L83.1471 79.4613L85.5783 82.8817C85.16 83.5418 84.7958 84.2435 84.5177 85.0014C84.407 85.3046 84.3627 85.6077 84.2766 85.9109L79.9162 86.6517V90.6002L84.0895 91.319C84.3307 92.4045 84.7589 93.4191 85.3051 94.3849L82.7657 97.9495L85.5733 100.759L89.0158 98.3334C89.6802 98.7539 90.3913 99.1157 91.1566 99.3969C91.4617 99.5093 91.7718 99.5509 92.0843 99.6365L92.8004 103.947H96.7891L97.5175 99.8174C98.61 99.5778 99.6337 99.1524 100.603 98.6096L104.176 101.13L107.003 98.326L104.572 94.9252C105 94.2602 105.369 93.5512 105.655 92.7859C105.761 92.4876 105.805 92.1845 105.891 91.8813L110.215 91.1405V87.1773L106.063 86.4708C105.814 85.3967 105.404 84.3658 104.848 83.4122L107.38 79.8402L104.557 77.0408L101.12 79.4417C100.448 79.0142 99.7333 78.6585 98.9865 78.3806C98.6937 78.2755 98.3935 78.2315 98.0933 78.1533L97.3329 73.8429H94.4835L95.859 65.7797C97.428 65.3772 98.9449 64.7955 100.379 64.0462L107.84 69.2783L113.955 63.2003L108.871 56.049C109.503 54.9781 110.064 53.8559 110.515 52.6531C110.64 52.3157 110.726 51.9807 110.835 51.6458L110.825 51.6409ZM88.8633 89.1553C88.8652 90.7923 89.5213 92.3616 90.6873 93.5183C91.8533 94.675 93.4338 95.3243 95.0814 95.3237C95.895 95.3221 96.7002 95.1613 97.4512 94.8504C98.2022 94.5395 98.8841 94.0846 99.4582 93.5118C100.032 92.939 100.487 92.2594 100.797 91.5119C101.106 90.7644 101.265 89.9636 101.263 89.1553C101.264 88.3472 101.106 87.5468 100.796 86.7997C100.486 86.0526 100.031 85.3735 99.4571 84.8011C98.8831 84.2288 98.2012 83.7744 97.4504 83.4639C96.6996 83.1534 95.8946 82.993 95.0814 82.9917C93.4344 82.9904 91.8543 83.6389 90.6883 84.7946C89.5223 85.9504 88.8659 87.5188 88.8633 89.1553Z" fill="white" fill-opacity="0.15"/>
</svg>
