<svg width="42" height="44" viewBox="0 0 42 44" fill="none" xmlns="http://www.w3.org/2000/svg">
<ellipse cx="21.0396" cy="21.9634" rx="20.544" ry="21.5095" fill="#65AFF6"/>
<path d="M16.805 31.5231C25.4186 31.5231 30.13 24.1664 30.13 17.7875C30.13 17.5781 30.13 17.3699 30.1163 17.1628C31.0328 16.4804 31.8238 15.6333 32.4526 14.6639C31.5989 15.0545 30.6916 15.311 29.7637 15.4239C30.7406 14.8204 31.4722 13.8721 31.8226 12.7533C30.9027 13.3156 29.8972 13.7121 28.8483 13.9251C27.0747 11.9815 24.1084 11.8874 22.2217 13.7157C21.0062 14.8945 20.4892 16.6522 20.867 18.3287C17.1017 18.1334 13.5933 16.3004 11.2147 13.2851C9.9718 15.491 10.6075 18.3122 12.6653 19.7287C11.9201 19.7064 11.1907 19.4993 10.539 19.1252V19.1864C10.5402 21.4841 12.1118 23.463 14.2963 23.9183C13.6069 24.1124 12.8833 24.1406 12.1826 24.0006C12.7955 25.9677 14.5543 27.3148 16.5573 27.3536C14.8989 28.6972 12.8502 29.4266 10.7411 29.4243C10.369 29.4231 9.99691 29.4007 9.62598 29.3549C11.7683 30.7714 14.2598 31.5232 16.805 31.5196" fill="white"/>
</svg>
