<svg width="150" height="113" viewBox="0 0 150 113" fill="none" xmlns="http://www.w3.org/2000/svg">
<path d="M35.9942 50.0692H44.2657V99.6763H56.6715V56.2701H69.0773V99.6763H81.4831V56.2701H93.8889V99.6763H106.295V50.0692H114.563C116.846 50.0692 118.701 47.7873 118.701 45.7317C118.701 44.4884 118.015 43.087 116.979 42.4111L116.985 42.2499L116.92 42.1352L117.336 42.0328L78.3817 21.976V16.11C84.5846 19.3934 90.6355 13.7382 100.092 17.1394V4.18259C90.6293 0.784497 84.5846 6.43661 78.3817 3.15324V2.32232C78.3817 1.29607 76.4247 0.462051 75.2802 0.462051C74.1358 0.462051 72.1788 1.29607 72.1788 2.32232V21.976L33.2277 41.9925L34.0682 42.0576L34.9614 42.0917V42.0979C31.86 42.7738 32.5547 44.4853 32.5547 45.7286C32.5516 47.7873 33.7115 50.0692 35.9942 50.0692V50.0692ZM41.1643 102.777L31.86 112.078H118.701L109.396 102.777H41.1643ZM109.396 53.1696V99.6763H112.141L113.354 101.391L121.622 109.139L124.547 112.078H149.715V53.1696H109.396ZM128.005 90.375H118.701V81.0737H128.005V90.375ZM128.005 71.7723H118.701V62.471H128.005V71.7723ZM140.411 90.375H134.208V81.0737H140.411V90.375ZM140.411 71.7723H134.208V62.471H140.411V71.7723ZM38.4164 99.6763H41.1643V53.1696H0.845459V112.078H26.0106L28.9322 109.449L37.2037 101.388L38.4164 99.6763V99.6763ZM16.3527 90.375H10.1498V81.0737H16.3527V90.375ZM16.3527 71.7723H10.1498V62.471H16.3527V71.7723ZM31.86 90.375H22.5556V81.0737H31.86V90.375ZM31.86 71.7723H22.5556V62.471H31.86V71.7723Z" fill="white" fill-opacity="0.15"/>
</svg>
